<?xml version="1.0" encoding="utf-8"?>
<!-- Generator: Adobe Illustrator 25.4.1, SVG Export Plug-In . SVG Version: 6.00 Build 0)  -->
<svg version="1.1" id="Layer_1" xmlns="http://www.w3.org/2000/svg" xmlns:xlink="http://www.w3.org/1999/xlink" x="0px" y="0px"
	 viewBox="0 0 897.59 540" style="enable-background:new 0 0 897.59 540;" xml:space="preserve">
<style type="text/css">
	.st0{fill:#FFFFFF;}
	.st1{font-family:'Lato-Bold';}
	.st2{font-size:42.5px;}
	.st3{font-family:'Lato-Black';}
	.st4{font-size:121.65px;}
</style>
<g>
	<path class="st0" d="M27.82,4c2.47,5.65,4.83,10.45,6.7,15.44C42.59,41.05,57.17,57.5,75.28,71.2
		c23.38,17.68,49.59,29.9,77.06,39.6c32.52,11.48,66,18.96,100.16,23.59c13.03,1.77,26.09,3.12,39.19,4.16
		c2.74,0.22,3.17-0.61,3.15-3.09c-0.1-17.02-0.05-34.05-0.05-51.08c0-1.12,0-2.24,0-4.03c47.73,31.81,95,63.31,142.78,95.16
		c-47.63,31.77-94.87,63.27-142.17,94.81c-1.01-1.4-0.58-2.68-0.58-3.85c-0.03-17.25-0.07-34.51,0.03-51.76
		c0.01-2.32-0.53-3.03-2.94-3.2c-37.68-2.63-74.94-8.03-111.52-17.6c-37.86-9.9-74.27-23.35-107.3-44.76
		c-19.74-12.8-37.39-27.91-49.65-48.38C8.87,76.45,6.89,51.23,18.59,25.17C21.62,18.43,24.5,11.62,27.82,4z"/>
</g>
<g>
	<path class="st0" d="M460.1,169.92c0.67,0.53,0.99,0.83,1.34,1.07c46.22,30.8,92.45,61.59,138.67,92.36
		c0.7,0.47,1.43,1.53,2.36,0.93s0.37-1.69,0.39-2.55c0-17.25,0.07-34.52,0-51.77c0-2.63,0.69-3.29,3.26-3.05
		c10.57,1.03,21.16,1.95,31.71,3.26c36.1,4.23,71.65,12.29,106.04,24.06c27.95,9.76,54.63,22.09,78.39,40.05
		c18.02,13.6,32.6,29.94,40.68,51.43c1.96,5.22,4.42,10.26,6.85,15.85c3.82-8.78,7.68-17.04,11.04-25.49
		c7.54-18.16,7.66-38.55,0.36-56.8c-7.98-20.68-22.27-36.51-39.18-50.17c-23.89-19.31-51.08-32.73-79.72-43.34
		c-50.07-18.6-102.08-27.89-155.21-31.56c-3.25-0.23-4.39-0.99-4.29-4.53c0.23-16.91,0.11-33.82,0-50.74c0-1.16,0.47-2.45-0.63-3.81
		C554.88,106.73,507.52,138.33,460.1,169.92z"/>
	<path class="st0" d="M460.1,169.92c47.47-31.65,94.84-63.25,142.12-94.78c1.1,1.36,0.63,2.65,0.63,3.81c0,16.92,0.16,33.83,0,50.74
		c0,3.55,1.1,4.29,4.29,4.53c53.13,3.66,105.12,12.99,155.21,31.56c28.61,10.61,55.79,24.03,79.72,43.34
		c16.91,13.66,31.2,29.48,39.18,50.17c7.26,18.25,7.1,38.63-0.46,56.76c-3.36,8.45-7.22,16.71-11.04,25.49
		c-2.43-5.59-4.89-10.63-6.85-15.85c-8.08-21.46-22.66-37.82-40.68-51.43c-23.76-17.92-50.44-30.25-78.39-40.05
		c-34.38-11.77-69.92-19.83-106.01-24.06c-10.56-1.32-21.14-2.23-31.71-3.26c-2.57-0.24-3.29,0.41-3.26,3.05
		c0.11,17.25,0,34.52,0,51.77c0,0.86,0.46,1.99-0.39,2.55c-0.84,0.56-1.66-0.46-2.36-0.93c-46.23-30.74-92.45-61.51-138.64-92.32
		C461.09,170.75,460.78,170.45,460.1,169.92z"/>
</g>
<text transform="matrix(1 0 0 1 6.3361 517.1963)" class="st0 st1 st2">INCREASING QUALITY OF INDOOR CLIMATE</text>
<text transform="matrix(1 0 0 1 4.1475 451.2861)" class="st0 st3 st4">CLIMATERIGHT</text>
</svg>
